<svg xmlns="http://www.w3.org/2000/svg" x="0px" y="0px" width="100" height="100" viewBox="0 0 50 50">
<path d="M 12.300781 1 C 10.385095 1 8.9585312 1.6691852 8.109375 2.6816406 C 7.2602188 3.694096 7 4.9333333 7 6 C 7 8.5484848 8.3728113 10.625179 10.273438 11.966797 C 10.850883 12.374406 11.481355 12.71356 12.140625 13 L 1 13 L 1 24 L 3 24 L 3 49 L 19 49 L 31 49 L 47 49 L 47 24 L 49 24 L 49 13 L 37.859375 13 C 38.518645 12.71356 39.149117 12.374406 39.726562 11.966797 C 41.627188 10.625179 43 8.5484848 43 6 C 43 4.9333333 42.739781 3.694096 41.890625 2.6816406 C 41.041469 1.6691852 39.614905 1 37.699219 1 C 35.708518 1 34.108426 1.8389043 32.900391 2.9960938 C 31.692355 4.1532832 30.813664 5.6064966 30 6.9941406 C 29.186336 8.3817847 28.434155 9.7087012 27.628906 10.617188 C 26.823657 11.525672 26.072619 12 25 12 C 23.927381 12 23.176343 11.525672 22.371094 10.617188 C 21.565845 9.7087012 20.813664 8.3817847 20 6.9941406 C 19.186336 5.6064966 18.307645 4.1532831 17.099609 2.9960938 C 15.891574 1.8389042 14.291482 1 12.300781 1 z M 12.300781 3 C 13.760081 3 14.771708 3.5360957 15.716797 4.4414062 C 16.661886 5.3467168 17.476555 6.6435034 18.275391 8.0058594 C 19.074227 9.3682153 19.852124 10.791298 20.875 11.945312 C 20.89433 11.967123 20.923779 11.97837 20.943359 12 L 17 12 C 14.99697 11.999998 12.925156 11.392366 11.425781 10.333984 C 9.9264071 9.2756029 9 7.8515152 9 6 C 9 5.2666667 9.1897812 4.5043415 9.640625 3.9667969 C 10.091469 3.4292523 10.816468 3 12.300781 3 z M 37.699219 3 C 39.183532 3 39.908531 3.4292523 40.359375 3.9667969 C 40.810219 4.5043415 41 5.2666667 41 6 C 41 7.8515152 40.073593 9.2756029 38.574219 10.333984 C 37.074844 11.392366 35.00303 12 33 12 L 29.056641 12 C 29.076221 11.97838 29.10567 11.967122 29.125 11.945312 C 30.147876 10.791298 30.925773 9.3682153 31.724609 8.0058594 C 32.523445 6.6435034 33.338114 5.3467169 34.283203 4.4414062 C 35.228291 3.5360978 36.239919 3 37.699219 3 z M 3 15 L 19 15 L 19 22 L 3 22 L 3 15 z M 21 15 L 29 15 L 29 22 L 21 22 L 21 15 z M 31 15 L 47 15 L 47 22 L 31 22 L 31 15 z M 5 24 L 19 24 L 19 47 L 5 47 L 5 24 z M 21 24 L 29 24 L 29 47 L 21 47 L 21 24 z M 31 24 L 45 24 L 45 47 L 31 47 L 31 24 z"></path>
</svg>
