<svg xmlns="http://www.w3.org/2000/svg" xmlns:xlink="http://www.w3.org/1999/xlink" preserveAspectRatio="xMidYMid meet" version="1.0" viewBox="-0.1 -0.2 367.4 366.2" zoomAndPan="magnify" style="fill: rgb(41, 37, 37);" original_string_length="16860" width="329.42120105025487px" height="328.82225341198176px"><g id="__id0_so4soixqll"><path d="M97.618675,207.74765c-1.467285-0.648438-3.914551-1.150391-7.240723,0.138184 c-5.4375,2.101562-8.366211,7.693848-6.526855,12.469238c0.918457,2.375488,2.931641,4.232422,5.523438,5.094727 c1.087402,0.361816,2.236328,0.541992,3.401855,0.541992c1.433594,0,2.891602-0.272461,4.290039-0.814453 c2.36084-0.913574,4.10791-2.52832,5.053223-4.670898c1.028809-2.332031,1.021973-5.090332-0.016602-7.76123 C101.183128,210.365326,99.632347,208.637299,97.618675,207.74765z M96.630394,218.084564 c-0.296875,0.671875-0.864151,1.161148-1.731445,1.497559c-1.218796,0.472763-2.541504,0.537109-3.630371,0.174316 c-0.520996-0.17334-1.450684-0.607422-1.819824-1.561523c-0.63916-1.659668,0.776855-3.817383,3.095215-4.713379 c0.526855-0.20459,1.197266-0.402344,1.816895-0.402344c0.296387,0,0.581055,0.04541,0.833008,0.15625 c0.664062,0.293457,1.080078,1.071777,1.314941,1.678711C96.961449,216.078217,97.005882,217.23349,96.630394,218.084564z M119.623558,170.350677c-0.076172-0.057617-0.159668-0.115723-0.271484-0.192383 c-3.095703-2.107422-6.956055-2.371582-10.209473-1.450195c-0.569336-2.03418-1.681152-3.86377-3.279297-5.321777 c-3.789062-3.456055-9.556152-4.148438-13.712402-1.645508c-2.312012,1.39209-7.373535,5.853516-4.431641,17.239258 l0.072754,0.260742c0.628418,2.342773,1.570801,4.868164,2.803223,7.512207c0.069824,0.149414,0.150879,0.331543,0.243164,0.537109 c1.183105,2.649414,3.161621,7.081055,6.99707,7.081055h0.016113c0.767578-0.002441,7.32373-0.461426,13.755859-2.396484 c0.391602-0.119629,0.785645-0.243164,1.170898-0.372559c0.029785-0.009766,0.058838-0.020706,0.088379-0.030762 c0.016953-0.005768,0.03418-0.01123,0.05127-0.01709c5.820801-1.958008,9.523438-4.699219,11.005371-8.147461 c0.749512-1.743652,1.292969-4.575195-0.371582-8.162109C122.599144,173.192963,121.277855,171.546478,119.623558,170.350677z M118.410667,181.037689c-0.757324,1.763184-3.387695,3.478027-7.405762,4.830078 c-0.02832,0.009277-0.056465,0.020035-0.084961,0.029785c-0.015053,0.005157-0.030762,0.009766-0.045898,0.015137 c-0.335449,0.112305-0.677734,0.219727-1.006836,0.319824c-4.912598,1.478027-10.049805,2.007812-11.618164,2.116699 c-0.459473-0.483887-1.10791-1.660156-1.932129-3.505859c-0.109375-0.244141-0.206055-0.460449-0.286133-0.631348 c-1.083008-2.323242-1.905273-4.519043-2.453125-6.55957l-0.062988-0.225098 c-1.350586-5.227051-0.719238-9.070801,1.731445-10.546387c0.728516-0.438965,1.592285-0.650879,2.484863-0.650879 c1.438477,0,2.950684,0.550781,4.088379,1.588867c0.994629,0.907227,2.092773,2.553223,1.676758,5.242676 c-0.198242,1.282227,0.450684,2.546875,1.607422,3.133789c1.157715,0.587891,2.561035,0.364258,3.478516-0.553711 c1.122559-1.122559,4.749023-2.322754,7.351562-0.552734l0.09082,0.062988c0.020996,0.015625,0.04248,0.03125,0.063965,0.046875 c0.821777,0.587891,1.501953,1.453125,2.020996,2.572266C118.902855,179.481049,118.661644,180.454193,118.410667,181.037689z M182.397476,74.641212c-8.402664-3.494553-35.361328-15.260742-38.914062-16.743164 c-6.033691-2.516602-8.06543-3.362793-9.561523-0.828613c-9.903313,16.665039-19.975578,31.731934-28.862785,45.024902 c-31.810059,47.582512-54.793461,81.961418-31.62207,130.851074c0.822754,1.743164,1.513672,3.028809,2.123535,4.163086 c0.100586,0.1875,0.199707,0.371582,0.297363,0.554688c-2.117676,6.231934-6.072754,17.824219-20.148441,47.538086 c-14.737305,31.095703-19.335938,39.383789-22.316406,44.353516c-6.643555-0.773926-13.395996,0.041504-23.152832,1.21875 c-2.324219,0.280762-4.835938,0.583496-7.577637,0.894043c-0.925781,0.10498-1.750488,0.633789-2.231445,1.431641 c-0.481445,0.79834-0.564453,1.774414-0.225098,2.64209c5.332031,13.630859,23.946289,21.869629,31.702148,24.779785 c8.101074,3.039062,18.117676,5.466797,25.693848,5.466797c3.262695,0,6.07373-0.450195,8.082523-1.496094 c0.829102-0.431641,1.40918-1.225586,1.569824-2.146484c0.593262-3.404297-5.98682-19.040039-17.989262-26.972656 c1.908691-4.820801,6.608398-15.164551,19.82864-43.075714c5.467293-11.543213,17.081131-39.664474,17.973221-41.904755 c0.41555-1.043564,1.686279-5.448761,3.001366-5.727051c33.827637-7.158203,47.138176-27.896484,53.286613-39.137695 c10.951172-20.001465,20.731934-54.460938,25.986816-72.974121c0,0,0.890533-3.137787,0.894531-3.150879 c0.004181-0.013657,0.003845-0.02832,0.008179-0.04187c0.007751-0.031982,0.017029-0.063965,0.030396-0.118774 c1.114746-3.901848,2.248535-7.820305,2.796875-9.145988c2.821777-6.928223,5.987793-16.943359,8.469727-26.791016 c1.052246-4.174805,1.901367-8.023926,2.391113-10.838867C184.558121,78.870216,185.098709,75.764618,182.397476,74.641212z M144.026382,140.937103c-6.722534,1.334229-28.172112,4.270752-43.424248-8.315674 c-1.57782-1.302124-3.089294-2.770264-4.511292-4.423584c-0.025391-0.226067,0.04248-0.889641,0.622559-1.913078 c0.842285-1.487305,4.515137-6.587891,16.397461-9.785645c8.885742-2.398438,20.964348-1.641602,33.138176,2.072266 c11.32666,3.455566,17.255371,7.789551,18.094238,9.48632C163.465347,130.099701,159.176285,137.911224,144.026382,140.937103z M88.324242,239.101654c-0.974609,0.191895-1.791016,0.853027-2.180664,1.766113 c-37.550205,88.024658-46.128334,96.301117-41.990726,98.419922c13.284603,6.802856,15.423218,14.466217,16.411133,20.538086 c-12.736805,1.799377-43.347878-8.459229-52.876465-22.702637c29.412125-3.529449,28.126465,0.322784,29.807129-2.760254 c8.603535-15.782379,33.333309-68.169586,44.070316-94.845703c3.329056-9.768326-34.106163-34.224121,10.608887-106.687988 c17.742897,19.71991,52.911949,18.406525,68.598625,7.868164C146.099396,191.372101,139.535522,229.034927,88.324242,239.101654z M167.5215,117.816994c-0.319336,0.771973-0.715332,1.960938-1.241211,3.690918 c-0.039673-0.031982-0.083679-0.063843-0.123901-0.095825c-0.086121-0.068481-0.176575-0.136841-0.265137-0.2052 c-0.21521-0.166382-0.437012-0.332275-0.666321-0.498291c-0.102173-0.073975-0.204163-0.147827-0.309143-0.22168 c-0.261169-0.183838-0.531372-0.367188-0.809082-0.550049c-0.069946-0.046143-0.136169-0.092529-0.207153-0.138428 c-0.34613-0.224365-0.705566-0.447754-1.075378-0.670166c-0.107605-0.064697-0.885437-0.517578-1.173035-0.678467 c-0.136841-0.07666-1.552124-0.834229-1.673035-0.895996c-0.41687-0.212769-0.84314-0.423828-1.279297-0.632812 c-0.12085-0.057861-1.710693-0.785889-1.881226-0.86084c-0.322144-0.141479-1.29895-0.556274-1.461609-0.623291 c-0.473633-0.195312-0.953552-0.388184-1.442383-0.577637c-0.120667-0.046875-1.92627-0.714966-2.122986-0.78479 c-0.341675-0.121216-2.54126-0.858276-3.006836-1.004028c-0.147339-0.046143-2.266174-0.674072-2.47583-0.733032 c-0.364624-0.102417-3.336792-0.870972-3.491211-0.907715c-0.557068-0.132446-2.104187-0.470947-2.315735-0.515381 c-0.385925-0.081055-2.682922-0.521362-3.100098-0.593506c-0.184509-0.03186-1.711182-0.282593-2.292358-0.366821 c-0.193542-0.028076-2.285278-0.296997-2.511841-0.322754c-0.414429-0.046997-1.640259-0.170776-1.838745-0.188599 c-0.589478-0.052856-1.178711-0.099731-1.767273-0.13855c-0.152405-0.01001-2.252373-0.110352-2.466606-0.116943 c-0.415405-0.012939-1.993469-0.036621-2.070923-0.036621c-0.374939,0-1.461853,0.017334-1.631531,0.021729 c-0.605774,0.015869-1.208374,0.041016-1.807739,0.075195c-0.181274,0.010254-1.394409,0.097168-1.817566,0.135254 c-0.225281,0.020264-1.426147,0.148926-1.799866,0.195923c-0.232727,0.029297-0.464172,0.060791-0.695374,0.093384 c-0.368469,0.051758-1.541504,0.241211-1.761353,0.280884c-0.390991,0.070557-0.77771,0.14856-1.163086,0.229126 c-0.184265,0.038452-0.370178,0.07373-0.553101,0.114624c-0.564148,0.125977-1.12323,0.26062-1.673706,0.409058 c-0.740295,0.199219-1.451355,0.410645-2.148743,0.627319c-0.199402,0.062012-0.394531,0.125366-0.590454,0.188599 c-0.538208,0.17395-1.063538,0.352661-1.575867,0.536133c-0.154358,0.05542-0.312805,0.109131-0.464844,0.165283 c-0.581238,0.2146-1.150024,0.433472-1.697632,0.659424l4.975098-7.453125 c8.576172-12.828613,18.251945-27.301758,27.854973-43.321777c3.279785,1.26416,10.345215,4.348145,17.222168,7.349609 c7.208984,3.146973,15.313477,6.68457,23.21875,9.993652C177.634293,85.196388,172.827652,104.788185,167.5215,117.816994z M147.357925,160.209076c-1.749512-4.490723-5.795883-6.268173-10.304932-4.529785 c-4.67308,1.801636-7.123291,6.775879-5.45874,11.098145c1.262695,3.23877,4.497559,5.193359,8.015625,5.193359 c1.15625,0,2.34375-0.210938,3.500977-0.657715C147.403824,169.635345,149.19191,164.969818,147.357925,160.209076z M140.939468,165.720306c-1.562988,0.600586-3.282715,0.089355-3.750488-1.11084 c-0.463867-1.204102,0.462402-2.729492,2.022461-3.331543c1.433105-0.552734,2.005371-0.302734,2.551758,1.098145 C142.067398,163.166107,142.594742,165.073334,140.939468,165.720306z M366.739288,332.196381 c-0.450684-0.81543-1.254883-1.375488-2.175781-1.515137c-2.664062-0.404297-5.103027-0.792969-7.360352-1.152344 c-9.452637-1.505859-16.000977-2.546875-22.501465-2.048828c-2.722168-4.958496-3.913086-13.248535-17.099609-44.033691 c-12.606445-29.447266-16.044434-40.907715-17.880859-47.069824c0.097168-0.166504,0.195801-0.333984,0.295898-0.504395 c0.636719-1.083984,1.358887-2.312988,2.222656-3.978516c24.427246-46.864258,0.274414-81.256836-29.001953-128.85791 c-8.175293-13.291992-17.441422-28.35791-26.478531-44.967285c-1.398438-2.589355-3.589844-1.772949-9.447754,0.413574 c-3.519531,1.313965-30.246094,11.792969-38.570801,14.890625c-2.72998,1.016113-2.294434,4.239258-1.833008,7.651367 c0.374023,2.765137,1.060059,6.552734,1.932129,10.665039c2.057129,9.698242,4.775879,19.586426,7.272949,26.450684 l0.005371,0.015137c0.480469,1.299316,1.439941,5.158203,2.381836,9l0.004883,0.020508 c0.012207,0.071289,0.026855,0.142578,0.044434,0.213379l0.737305,3.027336 c4.441406,18.25293,12.708496,52.228027,22.652344,72.146484c5.584473,11.198242,19.790039,31.022949,52.519058,39.268066 c0.212402,0.594238,0.444336,1.256348,0.70752,2.006836c2.163086,6.17334,6.189453,17.664551,17.976074,45.188965 c11.817383,27.606445,16.029297,37.891113,17.724609,42.68457c-11.994629,7.322266-20.96582,23.233398-20.512207,26.58252 c0.125,0.926758,0.675293,1.741211,1.487305,2.204102c2.210449,1.259766,5.478516,1.791992,9.28418,1.791992 c7.210449,0,16.348145-1.912109,23.861328-4.410156c7.680176-2.553711,26.161621-9.911621,31.876953-23.034668 C367.23587,333.990814,367.189972,333.01181,366.739288,332.196381z M211.750992,116.087502 c-4.674316-12.851074-8.633789-32.073242-9.132324-37.758301c7.816895-2.930664,36.705566-14.257812,39.970703-15.379883 c8.762695,15.955566,17.654312,30.412598,25.537613,43.22998l4.453125,7.251953 c-1.812988-0.818848-3.818848-1.58252-6.029785-2.268066c-17.751968-5.518555-43.785172,1.103516-53.755875,8.458008 C212.361343,117.98008,212.028336,116.839943,211.750992,116.087502z M232.477066,117.672951 c11.976562-3.15332,23.746109-3.4375,32.293961-0.779785c13.100586,4.063477,16.390137,10.483398,16.12207,11.93261 c-15.412109,16.595703-39.969742,12.32666-47.135757,10.619629c-14.559082-3.486328-18.474121-11.174316-19.278809-13.235832 C215.411148,124.577248,221.37648,120.595314,232.477066,117.672951z M307.151398,356.022064 c2.401367-4.83252,9.046021-16.724823,18.675293-20.208496c4.105804-1.485382-3.653595-9.705902-37.303223-97.59082 c-0.35498-0.927246-1.145508-1.619141-2.111816-1.847168c-49.380402-11.666992-56.401825-47.451172-68.880386-97.541016 c14.657623,10.541519,48.737045,13.639053,67.060074-5.190918c46.648102,69.04097,6.971619,96.605316,9.348145,104.341309 c7.710785,25.870392,30.290039,72.283813,36.480957,94.143555c0.990601,3.497742,0.106903-0.759277,28.902344,3.812012 C349.594971,349.204681,319.671051,358.199524,307.151398,356.022064z M241.829117,157.753021 c-5.386719,2.083984-8.196289,7.845215-6.263184,12.842285c1.45752,3.766113,5.19873,6.040039,9.259277,6.040039 c1.327637,0,2.689453-0.243164,4.016113-0.756348c2.664062-1.030762,4.54248-3.067871,5.288574-5.736328 c0.609375-2.178711,0.431152-4.705566-0.500977-7.114746C251.617691,157.828705,246.986343,155.759857,241.829117,157.753021z M248.351578,168.526459c-0.236816,0.848145-0.769531,1.40625-1.675293,1.756836 c-2.299805,0.890137-4.774902,0.058594-5.514648-1.853027c-0.739258-1.911621,0.53125-4.190918,2.83252-5.081543 c0.578613-0.223633,1.114746-0.366699,1.60791-0.366699c0.984863,0,1.796875,0.571777,2.431152,2.210938 C248.494644,166.385345,248.610855,167.600677,248.351578,168.526459z M278.47757,171.712006 c5.602539,0,9.789062-4.76709,9.789062-9.029297c0-4.446777-4.299805-7.930176-9.789062-7.930176 c-5.48877,0-9.788574,3.483398-9.788574,7.930176C268.688995,166.944916,272.875031,171.712006,278.47757,171.712006z M278.47757,160.752533c2.277832,0,3.789062,1.161621,3.789062,1.930176c0,1.010254-1.638184,3.029297-3.789062,3.029297 s-3.788574-2.019043-3.788574-3.029297C274.688995,161.914154,276.200226,160.752533,278.47757,160.752533z M145.476089,33.115334 c-1.574707-1.775879-1.019043-3.258301-0.547363-3.984375c0.294922-0.455078,1.432129-1.885254,3.687012-1.168945 c0.914062,0.289551,1.592285,0.976562,1.904297,1.810059c1.276855,1.506836,3.928223,4.936523,8.02832,12.452148 c0.793457,1.454102,0.257324,3.276855-1.197266,4.070312c-0.456055,0.248535-0.948242,0.366699-1.434082,0.366699 c-1.062012,0-2.091309-0.56543-2.63623-1.563965C150.289078,39.612892,147.663101,35.581642,145.476089,33.115334z M171.147476,3.424415c-0.234375-1.640137,0.905762-3.159668,2.545898-3.393555 c1.633789-0.23584,3.159668,0.905762,3.393555,2.545898c0.986816,6.911621,3.530762,18.90625,5.214355,26.843262 c1.345703,6.34375,1.785645,8.462402,1.848633,9.274902c0.127441,1.651855-1.108398,3.094727-2.760254,3.222168 c-0.078613,0.005859-0.156738,0.008789-0.234375,0.008789c-1.551758,0-2.83992-1.198055-2.987793-2.769043 c-0.061371-0.651997-0.917969-4.636719-1.735352-8.491699C174.629898,22.170021,172.162613,10.536231,171.147476,3.424415z M204.117203,32.222267c1.780273-7.301758,2.999512-11.854492,3.890137-15.178711 c0.943848-3.524903,1.513672-5.652345,2.03418-8.341798c0.314453-1.626953,1.88916-2.690918,3.515137-2.375488 c1.626465,0.314453,2.69043,1.888184,2.375488,3.515137c-0.560547,2.897461-1.18457,5.227539-2.129395,8.754395 c-0.882812,3.296875-2.092285,7.811523-3.856445,15.047363c-0.333984,1.371094-1.561035,2.290039-2.912109,2.290039 c-0.235352,0-0.474121-0.027832-0.712891-0.085938C204.711441,35.454689,203.724625,33.831642,204.117203,32.222267z M223.276871,45.678322c-1.173828-1.168945-1.178223-3.068359-0.009277-4.242676 c1.705078-1.712891,3.455078-2.896484,8.650391-6.410156c2.831543-1.915039,6.708984-4.537598,12.211914-8.347168 c1.360352-0.943359,3.230469-0.604004,4.173828,0.758789c0.943359,1.361816,0.603516,3.230957-0.758789,4.173828 c-5.529785,3.828613-9.422852,6.461914-12.265137,8.384277c-4.835449,3.270508-6.464355,4.37207-7.760254,5.673828 c-0.585938,0.588379-1.355957,0.883301-2.125977,0.883301C224.627945,46.552345,223.86232,46.26133,223.276871,45.678322z M294.259796,201.618256c0.015625-0.030273,0.030762-0.060059,0.044922-0.090332 c0.010254-0.019043,0.020508-0.038574,0.030762-0.057617c3.117676-6.036133,3.981934-11.073242,2.567383-14.97168 c-1.023438-2.821289-3.142578-4.924316-6.299316-6.251465c-2.287598-0.960938-4.562012-1.311523-6.762207-1.039551 c-0.105957,0.010254-0.217285,0.025879-0.362305,0.04834c-4.121582,0.632812-7.418945,3.45459-9.257812,6.766113 c-2.006348-1.32666-4.349609-2.03418-6.791992-2.003906c-5.436035,0.033691-10.455078,3.696289-11.934097,8.709473 c-0.852051,2.887207-1.648926,10.378906,9.365738,17.595215l0.260742,0.163574 c2.280762,1.464355,4.953125,2.841309,7.94873,4.094238c0.171387,0.071289,0.377441,0.161621,0.610352,0.263672 c1.859863,0.813965,4.516602,1.977051,6.966309,1.977051c1.401855,0,2.736328-0.381348,3.814453-1.42627 c0.609863-0.591309,5.488281-6.01123,9.147949-12.567383C293.831085,202.427338,294.050812,202.021088,294.259796,201.618256z M289.004425,198.7164c-0.014648,0.028809-0.028809,0.057129-0.04248,0.085938 c-0.009766,0.017578-0.019043,0.035645-0.02832,0.053223c-0.18457,0.355957-0.378906,0.714355-0.568848,1.057617 c-2.85791,5.120605-6.737305,9.703613-7.831055,10.908691c-0.738281-0.009766-2.231445-0.504395-4.447266-1.474121 c-0.271484-0.118652-0.512207-0.224121-0.706543-0.304688c-2.668457-1.116211-5.029297-2.32959-7.044434-3.623047l-0.231934-0.14502 c-5.35498-3.508301-7.853027-7.462891-6.853516-10.849609c0.736328-2.495117,3.408691-4.390137,6.216309-4.407227h0.039551 c1.570312,0,3.806152,0.57373,5.619629,3.277344c0.728516,1.085938,2.075684,1.57373,3.332031,1.208496 c1.254883-0.366699,2.128418-1.503906,2.158203-2.811035c0.04541-1.968262,2.067871-5.9375,5.727051-6.499512l0.114258-0.017578 c0.029785-0.002441,0.05957-0.005859,0.089355-0.009766c1.15625-0.149414,2.411621,0.057129,3.731934,0.612305 c1.572754,0.661133,2.548828,1.565918,2.984375,2.766602C292.059601,190.741791,291.257843,194.354584,289.004425,198.7164z" style="fill: inherit;"/></g></svg>
